<?xml version="1.0" encoding="UTF-8"?>
<svg width="16px" height="16px" viewBox="0 0 16 16" version="1.1" xmlns="http://www.w3.org/2000/svg" xmlns:xlink="http://www.w3.org/1999/xlink">
    <title>gear</title>
    <g id="Page-1" stroke="none" stroke-width="1" fill="none" fill-rule="evenodd">
        <g id="gear" transform="translate(0.000500, 0.000500)" fill="#1D9BF0" fill-rule="nonzero">
            <path d="M7.9995,4.7535 C6.83981588,4.7535 5.76822355,5.37218408 5.18838148,6.37649998 C4.60853941,7.38081589 4.60853941,8.61818411 5.18838148,9.62250002 C5.76822355,10.6268159 6.83981588,11.2455 7.9995,11.2455 C9.79221628,11.2455 11.2455,9.79221628 11.2455,7.9995 C11.2455,6.20678372 9.79221628,4.7535 7.9995,4.7535 L7.9995,4.7535 Z M5.7535,7.9995 C5.7535,6.75906845 6.75906845,5.7535 7.9995,5.7535 C9.23993155,5.7535 10.2455,6.75906845 10.2455,7.9995 C10.2455,9.23993155 9.23993155,10.2455 7.9995,10.2455 C6.75906845,10.2455 5.7535,9.23993155 5.7535,7.9995 L5.7535,7.9995 Z" id="Shape"></path>
            <path d="M9.7955,1.3425 C9.2685,-0.4475 6.7305,-0.4475 6.2035,1.3425 L6.1095,1.6615 C6.0349593,1.9145737 5.84997116,2.12036461 5.60624154,2.22135218 C5.36251192,2.32233975 5.08618617,2.30769086 4.8545,2.1815 L4.5625,2.0215 C2.9225,1.1295 1.1295,2.9235 2.0225,4.5625 L2.1815,4.8545 C2.30769086,5.08618617 2.32233975,5.36251192 2.22135218,5.60624154 C2.12036461,5.84997116 1.9145737,6.0349593 1.6615,6.1095 L1.3425,6.2035 C-0.4475,6.7305 -0.4475,9.2685 1.3425,9.7955 L1.6615,9.8895 C1.9145737,9.9640407 2.12036461,10.1490288 2.22135218,10.3927585 C2.32233975,10.6364881 2.30769086,10.9128138 2.1815,11.1445 L2.0215,11.4365 C1.1295,13.0765 2.9225,14.8705 4.5625,13.9765 L4.8545,13.8175 C5.08618617,13.6913091 5.36251192,13.6766602 5.60624154,13.7776478 C5.84997116,13.8786354 6.0349593,14.0844263 6.1095,14.3375 L6.2035,14.6565 C6.7305,16.4465 9.2685,16.4465 9.7955,14.6565 L9.8895,14.3375 C9.9640407,14.0844263 10.1490288,13.8786354 10.3927585,13.7776478 C10.6364881,13.6766602 10.9128138,13.6913091 11.1445,13.8175 L11.4365,13.9775 C13.0765,14.8705 14.8705,13.0755 13.9765,11.4365 L13.8175,11.1445 C13.6913091,10.9128138 13.6766602,10.6364881 13.7776478,10.3927585 C13.8786354,10.1490288 14.0844263,9.9640407 14.3375,9.8895 L14.6565,9.7955 C16.4465,9.2685 16.4465,6.7305 14.6565,6.2035 L14.3375,6.1095 C14.0844263,6.0349593 13.8786354,5.84997116 13.7776478,5.60624154 C13.6766602,5.36251192 13.6913091,5.08618617 13.8175,4.8545 L13.9775,4.5625 C14.8705,2.9225 13.0755,1.1295 11.4365,2.0225 L11.1445,2.1815 C10.9128138,2.30769086 10.6364881,2.32233975 10.3927585,2.22135218 C10.1490288,2.12036461 9.9640407,1.9145737 9.8895,1.6615 L9.7955,1.3425 Z M7.1625,1.6255 C7.4085,0.7905 8.5905,0.7905 8.8365,1.6255 L8.9305,1.9445 C9.09054466,2.48747129 9.48756522,2.92893443 10.0105759,3.14547989 C10.5335866,3.36202535 11.1264746,3.33042036 11.6235,3.0595 L11.9145,2.8995 C12.6785,2.4845 13.5145,3.3195 13.0985,4.0845 L12.9395,4.3765 C12.6689889,4.8735765 12.637727,5.46631011 12.8544491,5.98908424 C13.0711712,6.51185838 13.5126385,6.90861657 14.0555,7.0685 L14.3735,7.1625 C15.2085,7.4085 15.2085,8.5905 14.3735,8.8365 L14.0545,8.9305 C13.5115287,9.09054466 13.0700656,9.48756522 12.8535201,10.0105759 C12.6369747,10.5335866 12.6685796,11.1264746 12.9395,11.6235 L13.0995,11.9145 C13.5145,12.6785 12.6795,13.5145 11.9145,13.0985 L11.6235,12.9395 C11.126339,12.6686052 10.5333219,12.6371335 10.0102812,12.8538856 C9.48724056,13.0706377 9.09031437,13.5123496 8.9305,14.0555 L8.8365,14.3735 C8.5905,15.2085 7.4085,15.2085 7.1625,14.3735 L7.0685,14.0545 C6.9083864,13.5118177 6.5115339,13.0705991 5.98878969,12.8540835 C5.46604549,12.637568 4.87344097,12.6689632 4.3765,12.9395 L4.0845,13.0995 C3.3205,13.5145 2.4845,12.6795 2.9005,11.9145 L3.0595,11.6235 C3.33080426,11.1263903 3.36261923,10.5332187 3.1460438,10.0099414 C2.92946837,9.4866641 2.48776044,9.08947547 1.9445,8.9295 L1.6255,8.8355 C0.7905,8.5895 0.7905,7.4075 1.6255,7.1615 L1.9445,7.0675 C2.48689356,6.90731773 2.92786789,6.51063325 3.14435351,5.98815539 C3.36083913,5.46567754 3.32965347,4.87335635 3.0595,4.3765 L2.8995,4.0845 C2.4845,3.3205 3.3195,2.4845 4.0845,2.9005 L4.3765,3.0595 C4.87344097,3.33003677 5.46604549,3.36143198 5.98878969,3.14491646 C6.5115339,2.92840094 6.9083864,2.48718233 7.0685,1.9445 L7.1625,1.6255 Z" id="Shape"></path>
        </g>
    </g>
</svg>