<?xml version="1.0" encoding="UTF-8"?>
<svg width="16px" height="15px" viewBox="0 0 16 15" version="1.1" xmlns="http://www.w3.org/2000/svg" xmlns:xlink="http://www.w3.org/1999/xlink">
    <title>heart</title>
    <g id="Page-1" stroke="none" stroke-width="1" fill="none" fill-rule="evenodd">
        <g id="heart" transform="translate(0.000105, -0.000049)" fill="#6A737A" fill-rule="nonzero">
            <path d="M7.99989481,2.74804859 L7.28289481,2.01104859 C5.59989481,0.28104859 2.51389481,0.87804859 1.39989481,3.05304859 C0.876894806,4.07604859 0.758894806,5.55304859 1.71389481,7.43804859 C2.63389481,9.25304859 4.54789481,11.4270486 7.99989481,13.7950486 C11.4518948,11.4270486 13.3648948,9.25304859 14.2858948,7.43804859 C15.2408948,5.55204859 15.1238948,4.07604859 14.5998948,3.05304859 C13.4858948,0.87804859 10.3998948,0.28004859 8.71689481,2.01004859 L7.99989481,2.74804859 Z M7.99989481,15.0000486 C-7.33310519,4.86804859 3.27889481,-3.03995141 7.82389481,1.14304859 C7.88389481,1.19804859 7.94289481,1.25504859 7.99989481,1.31404859 C8.05631592,1.25510228 8.11502772,1.19839201 8.17589481,1.14404859 C12.7198948,-3.04195141 23.3328948,4.86704859 7.99989481,15.0000486 Z" id="Shape"></path>
        </g>
    </g>
</svg>