<?xml version="1.0" encoding="UTF-8"?>
<svg width="12px" height="13px" viewBox="0 0 12 13" version="1.1" xmlns="http://www.w3.org/2000/svg" xmlns:xlink="http://www.w3.org/1999/xlink">
    <title>link</title>
    <g id="Page-1" stroke="none" stroke-width="1" fill="none" fill-rule="evenodd">
        <g id="link" transform="translate(0.464246, 0.965246)" fill="#6A737A" fill-rule="nonzero">
            <path d="M2.25075407,4.57675407 L0.878754073,5.94875407 C-0.292918024,7.12042617 -0.292918024,9.02008198 0.878754073,10.1917541 C2.05042617,11.3634262 3.95008198,11.3634262 5.12175407,10.1917541 L6.94975407,8.36275407 C7.63825283,7.67415731 7.94970989,6.69423112 7.78511457,5.73448927 C7.62051924,4.77474742 7.00034941,3.95459484 6.12175407,3.53475407 L5.53575407,4.12075407 C5.47626256,4.18035268 5.42452135,4.24721309 5.38175407,4.31975407 C6.06240496,4.51542649 6.58881775,5.05647558 6.76575489,5.74223543 C6.94269203,6.42799529 6.74376562,7.15619362 6.24275407,7.65675407 L4.41575407,9.48475407 C3.63427115,10.266237 2.36723699,10.266237 1.58575407,9.48475407 C0.804271152,8.70327115 0.804271152,7.43623699 1.58575407,6.65475407 L2.37875407,5.86275407 C2.26686917,5.44348077 2.22364263,5.00885141 2.25075407,4.57575407 L2.25075407,4.57675407 Z" id="Path"></path>
            <path d="M4.12175407,2.70675407 C3.43325531,3.39535083 3.12179825,4.37527703 3.28639358,5.33501888 C3.45098891,6.29476073 4.07115873,7.1149133 4.94975407,7.53475407 L5.72475407,6.75875407 C5.03469145,6.5736589 4.49577253,6.03451512 4.31096522,5.34437535 C4.12615792,4.65423559 4.32353267,3.9179253 4.82875407,3.41275407 L6.65575407,1.58475407 C7.43723699,0.803271152 8.70427115,0.803271152 9.48575407,1.58475407 C10.267237,2.36623699 10.267237,3.63327115 9.48575407,4.41475407 L8.69275407,5.20675407 C8.80475407,5.62675407 8.84775407,6.06175407 8.82075407,6.49375407 L10.1927541,5.12175407 C11.3644262,3.95008198 11.3644262,2.05042617 10.1927541,0.878754073 C9.02108198,-0.292918024 7.12142617,-0.292918024 5.94975407,0.878754073 L4.12175407,2.70675407 Z" id="Path"></path>
        </g>
    </g>
</svg>