<?xml version="1.0" encoding="UTF-8"?>
<svg width="16px" height="15px" viewBox="0 0 16 15" version="1.1" xmlns="http://www.w3.org/2000/svg" xmlns:xlink="http://www.w3.org/1999/xlink">
    <title>Shape</title>
    <g id="Page-1" stroke="none" stroke-width="1" fill="none" fill-rule="evenodd">
        <g id="reply" transform="translate(0.000000, -0.000000)" fill="#6A737A" fill-rule="nonzero">
            <path d="M2.678,10.894 C2.88815098,11.1049541 2.99336022,11.3985868 2.965,11.695 C2.89471893,12.3725781 2.76147674,13.0421369 2.567,13.695 C3.962,13.372 4.814,12.998 5.201,12.802 C5.42050316,12.6908249 5.673289,12.6644782 5.911,12.728 C6.59243485,12.9096681 7.29476565,13.0011156 8,13 C11.996,13 15,10.193 15,7 C15,3.808 11.996,1 8,1 C4.004,1 1,3.808 1,7 C1,8.468 1.617,9.83 2.678,10.894 Z M2.185,14.799 C1.94806847,14.8459685 1.71036862,14.8889745 1.472,14.928 C1.272,14.96 1.12,14.752 1.199,14.566 C1.28779178,14.3565992 1.36917563,14.144134 1.443,13.929 L1.446,13.919 C1.694,13.199 1.896,12.371 1.97,11.6 C0.743,10.37 0,8.76 0,7 C0,3.134 3.582,8.8817842e-16 8,8.8817842e-16 C12.418,8.8817842e-16 16,3.134 16,7 C16,10.866 12.418,14 8,14 C7.20765176,14.0010681 6.41858679,13.8981905 5.653,13.694 C5.133,13.957 4.014,14.436 2.185,14.799 L2.185,14.799 Z" id="Shape"></path>
        </g>
    </g>
</svg>