<?xml version="1.0" encoding="UTF-8"?>
<svg width="23px" height="14px" viewBox="0 0 23 14" version="1.1" xmlns="http://www.w3.org/2000/svg" xmlns:xlink="http://www.w3.org/1999/xlink">
    <title>retuit</title>
    <g id="Page-1" stroke="none" stroke-width="1" fill="none" fill-rule="evenodd">
        <g id="retuit" transform="translate(-0.000632, 0.000000)" fill="#6A737A" fill-rule="nonzero">
            <g id="retweet" transform="translate(-0.000000, 0.000000)">
                <path d="M4.85463158,13.854 C4.76082732,13.9480417 4.63345885,14.0008938 4.50063158,14.0008938 C4.36780432,14.0008938 4.24043585,13.9480417 4.14663158,13.854 L0.146631584,9.854 C-0.0488772013,9.6584912 -0.0488771938,9.34150881 0.146631601,9.14600002 C0.342140396,8.95049122 0.65912278,8.95049121 0.854631584,9.146 L4.00063158,12.293 L4.00063158,2.5 C4.00063158,1.11928813 5.11991971,-4.4408921e-16 6.50063158,-4.4408921e-16 L14.5006316,-4.4408921e-16 C14.776774,-4.4408921e-16 15.0006316,0.223857625 15.0006316,0.5 C15.0006316,0.776142375 14.776774,1 14.5006316,1 L6.50063158,1 C5.67220446,1 5.00063158,1.67157288 5.00063158,2.5 L5.00063158,12.293 L8.14663158,9.146 C8.34214039,8.95049121 8.65912277,8.95049122 8.85463157,9.14600001 C9.05014037,9.34150881 9.05014037,9.6584912 8.85463158,9.854 L4.85463158,13.854 Z" id="Path"></path>
            </g>
            <g id="retweet" transform="translate(15.500316, 7.000447) rotate(180.000000) translate(-15.500316, -7.000447) translate(8.000000, 0.000000)">
                <path d="M4.85463158,13.854 C4.76082732,13.9480417 4.63345885,14.0008938 4.50063158,14.0008938 C4.36780432,14.0008938 4.24043585,13.9480417 4.14663158,13.854 L0.146631584,9.854 C-0.0488772013,9.6584912 -0.0488771938,9.34150881 0.146631601,9.14600002 C0.342140396,8.95049122 0.65912278,8.95049121 0.854631584,9.146 L4.00063158,12.293 L4.00063158,2.5 C4.00063158,1.11928813 5.11991971,-1.77635684e-15 6.50063158,-1.77635684e-15 L14.5006316,-1.77635684e-15 C14.776774,-1.77635684e-15 15.0006316,0.223857625 15.0006316,0.5 C15.0006316,0.776142375 14.776774,1 14.5006316,1 L6.50063158,1 C5.67220446,1 5.00063158,1.67157288 5.00063158,2.5 L5.00063158,12.293 L8.14663158,9.146 C8.34214039,8.95049121 8.65912277,8.95049122 8.85463157,9.14600001 C9.05014037,9.34150881 9.05014037,9.6584912 8.85463158,9.854 L4.85463158,13.854 Z" id="Path"></path>
            </g>
        </g>
    </g>
</svg>