<?xml version="1.0" encoding="UTF-8"?>
<svg width="16px" height="14px" viewBox="0 0 16 14" version="1.1" xmlns="http://www.w3.org/2000/svg" xmlns:xlink="http://www.w3.org/1999/xlink">
    <title>share</title>
    <g id="Page-1" stroke="none" stroke-width="1" fill="none" fill-rule="evenodd">
        <g id="share" transform="translate(0.000000, -0.000894)" fill="#6A737A" fill-rule="nonzero">
            <path d="M0.5,8.90089378 C0.776142375,8.90089378 1,9.12475141 1,9.40089378 L1,11.9008938 C1,12.4531785 1.44771525,12.9008938 2,12.9008938 L14,12.9008938 C14.5522847,12.9008938 15,12.4531785 15,11.9008938 L15,9.40089378 C15,9.12475141 15.2238576,8.90089378 15.5,8.90089378 C15.7761424,8.90089378 16,9.12475141 16,9.40089378 L16,11.9008938 C16,13.0054633 15.1045695,13.9008938 14,13.9008938 L2,13.9008938 C0.8954305,13.9008938 0,13.0054633 0,11.9008938 L0,9.40089378 C0,9.12475141 0.223857625,8.90089378 0.5,8.90089378 Z" id="Path"></path>
            <path d="M7.646,0.146893784 C7.73980426,0.052852083 7.86717274,0 8,0 C8.13282726,0 8.26019574,0.052852083 8.354,0.146893784 L11.354,3.14689378 C11.5495088,3.34240259 11.5495088,3.65938498 11.354,3.85489378 C11.1584912,4.05040258 10.8415088,4.05040258 10.646,3.85489378 L8.5,1.70789378 L8.5,10.5008938 C8.5,10.7770362 8.27614237,11.0008938 8,11.0008938 C7.72385763,11.0008938 7.5,10.7770362 7.5,10.5008938 L7.5,1.70789378 L5.354,3.85489378 C5.22752798,3.98136581 5.043191,4.03075875 4.870427,3.98446678 C4.69766301,3.93817481 4.56271897,3.80323077 4.516427,3.63046678 C4.47013503,3.45770279 4.51952798,3.2733658 4.646,3.14689378 L7.646,0.146893784 Z" id="Path"></path>
        </g>
    </g>
</svg>