<?xml version="1.0" encoding="UTF-8"?>
<svg width="16px" height="16px" viewBox="0 0 16 16" version="1.1" xmlns="http://www.w3.org/2000/svg" xmlns:xlink="http://www.w3.org/1999/xlink">
    <title>Shape</title>
    <g id="Page-1" stroke="none" stroke-width="1" fill="none" fill-rule="evenodd">
        <g id="verified" transform="translate(0.000805, -0.000195)" fill="#FFFFFF" fill-rule="nonzero">
            <path d="M10.0661953,0.870195306 C9.52242281,0.313716876 8.77724207,-2.25378527e-16 7.99919531,-2.25378527e-16 C7.22114854,-2.25378527e-16 6.4759678,0.313716876 5.93219531,0.870195306 L5.31019531,1.50819531 L4.42019531,1.49719531 C3.64191499,1.48798392 2.89282015,1.79308848 2.34245431,2.34345431 C1.79208848,2.89382015 1.48698392,3.64291499 1.49619531,4.42119531 L1.50619531,5.31119531 L0.870195306,5.93319531 C0.313716876,6.4769678 9.76866157e-17,7.22214854 9.76866157e-17,8.00019531 C9.76866157e-17,8.77824207 0.313716876,9.52342281 0.870195306,10.0671953 L1.50719531,10.6891953 L1.49619531,11.5791953 C1.48698392,12.3574756 1.79208848,13.1065705 2.34245431,13.6569363 C2.89282015,14.2073021 3.64191499,14.5124067 4.42019531,14.5031953 L5.31019531,14.4931953 L5.93219531,15.1291953 C6.4759678,15.6856737 7.22114854,15.9993906 7.99919531,15.9993906 C8.77724207,15.9993906 9.52242281,15.6856737 10.0661953,15.1291953 L10.6881953,14.4921953 L11.5781953,14.5031953 C12.3564756,14.5124067 13.1055705,14.2073021 13.6559363,13.6569363 C14.2063021,13.1065705 14.5114067,12.3574756 14.5021953,11.5791953 L14.4921953,10.6891953 L15.1281953,10.0671953 C15.6846737,9.52342281 15.9983906,8.77824207 15.9983906,8.00019531 C15.9983906,7.22214854 15.6846737,6.4769678 15.1281953,5.93319531 L14.4911953,5.31119531 L14.5021953,4.42119531 C14.5114067,3.64291499 14.2063021,2.89382015 13.6559363,2.34345431 C13.1055705,1.79308848 12.3564756,1.48798392 11.5781953,1.49719531 L10.6881953,1.50719531 L10.0661953,0.871195306 L10.0661953,0.870195306 Z M10.3531953,6.85419531 L7.35319531,9.85419531 C7.25939104,9.94823701 7.13202257,10.0010891 6.99919531,10.0010891 C6.86636805,10.0010891 6.73899957,9.94823701 6.64519531,9.85419531 L5.14519531,8.35419531 C5.01872328,8.22772329 4.96933034,8.0433863 5.01562231,7.87062231 C5.06191428,7.69785832 5.19685832,7.56291428 5.36962231,7.51662231 C5.5423863,7.47033034 5.72672329,7.51972328 5.85319531,7.64619531 L6.99919531,8.79319531 L9.64519531,6.14619531 C9.84070411,5.95068651 10.1576865,5.95068651 10.3531953,6.14619531 C10.5487041,6.34170411 10.5487041,6.6586865 10.3531953,6.85419531 L10.3531953,6.85419531 Z" id="Shape"></path>
        </g>
    </g>
</svg>